<?xml version="1.0" encoding="UTF-8" standalone="no"?>
<!DOCTYPE svg PUBLIC "-//W3C//DTD SVG 1.1//EN"
 "http://www.w3.org/Graphics/SVG/1.1/DTD/svg11.dtd">
<!-- Generated by graphviz version 2.40.1 (20161225.0304)
 -->
<!-- Title: dependencies Pages: 1 -->
<svg width="2045pt" height="284pt"
 viewBox="0.00 0.00 2045.00 284.00" xmlns="http://www.w3.org/2000/svg" xmlns:xlink="http://www.w3.org/1999/xlink">
<g id="graph0" class="graph" transform="scale(1 1) rotate(0) translate(4 280)">
<title>dependencies</title>
<polygon fill="#ffffff" stroke="transparent" points="-4,4 -4,-280 2041,-280 2041,4 -4,4"/>
<text text-anchor="start" x="997.5091" y="-42.4" font-family="sans-serif" font-weight="bold" font-size="14.00" fill="#000000">Legend</text>
<polygon fill="#ffffb3" stroke="transparent" points="784.5,-10 784.5,-30 804.5,-30 804.5,-10 784.5,-10"/>
<text text-anchor="start" x="808.129" y="-15.4" font-family="sans-serif" font-size="14.00" fill="#000000"> &#160;Declarations</text>
<polygon fill="#8dd3c7" stroke="transparent" points="897.5,-10 897.5,-30 917.5,-30 917.5,-10 897.5,-10"/>
<text text-anchor="start" x="921.2251" y="-15.4" font-family="sans-serif" font-size="14.00" fill="#000000"> &#160;Module</text>
<polygon fill="#80b1d3" stroke="transparent" points="983.5,-10 983.5,-30 1003.5,-30 1003.5,-10 983.5,-10"/>
<text text-anchor="start" x="1007.2812" y="-15.4" font-family="sans-serif" font-size="14.00" fill="#000000"> &#160;Bootstrap</text>
<polygon fill="#fdb462" stroke="transparent" points="1080.5,-10 1080.5,-30 1100.5,-30 1100.5,-10 1080.5,-10"/>
<text text-anchor="start" x="1104.1732" y="-15.4" font-family="sans-serif" font-size="14.00" fill="#000000"> &#160;Providers</text>
<polygon fill="#fb8072" stroke="transparent" points="1176.5,-10 1176.5,-30 1196.5,-30 1196.5,-10 1176.5,-10"/>
<text text-anchor="start" x="1200.2258" y="-15.4" font-family="sans-serif" font-size="14.00" fill="#000000"> &#160;Exports</text>
<g id="clust1" class="cluster">
<title>cluster_AppModule</title>
<polygon fill="none" stroke="#000000" stroke-dasharray="1,5" points="8,-70 8,-268 2029,-268 2029,-70 8,-70"/>
</g>
<g id="clust2" class="cluster">
<title>cluster_AppModule_declarations</title>
<polygon fill="none" stroke="#000000" points="391,-78 391,-130 2021,-130 2021,-78 391,-78"/>
</g>
<g id="clust14" class="cluster">
<title>cluster_AppModule_imports</title>
<polygon fill="none" stroke="#000000" points="311,-78 311,-130 383,-130 383,-78 311,-78"/>
</g>
<g id="clust16" class="cluster">
<title>cluster_AppModule_bootstrap</title>
<polygon fill="none" stroke="#000000" points="895,-208 895,-260 1019,-260 1019,-208 895,-208"/>
</g>
<g id="clust17" class="cluster">
<title>cluster_AppModule_providers</title>
<polygon fill="none" stroke="#000000" points="16,-78 16,-130 303,-130 303,-78 16,-78"/>
</g>
<!-- AppComponent -->
<g id="node1" class="node">
<title>AppComponent</title>
<polygon fill="#ffffb3" stroke="#000000" points="2012.9399,-122 1907.0601,-122 1907.0601,-86 2012.9399,-86 2012.9399,-122"/>
<text text-anchor="middle" x="1960" y="-99.8" font-family="Times,serif" font-size="14.00" fill="#000000">AppComponent</text>
</g>
<!-- AppModule -->
<g id="node12" class="node">
<title>AppModule</title>
<polygon fill="#8dd3c7" stroke="#000000" points="998.6571,-187 995.6571,-191 974.6571,-191 971.6571,-187 915.3429,-187 915.3429,-151 998.6571,-151 998.6571,-187"/>
<text text-anchor="middle" x="957" y="-164.8" font-family="Times,serif" font-size="14.00" fill="#000000">AppModule</text>
</g>
<!-- AppComponent&#45;&gt;AppModule -->
<g id="edge1" class="edge">
<title>AppComponent&#45;&gt;AppModule</title>
<path fill="none" stroke="#000000" d="M1960,-122.0908C1960,-145.1328 1960,-182 1960,-182 1960,-182 1008.8207,-182 1008.8207,-182"/>
<polygon fill="#000000" stroke="#000000" points="1008.8207,-178.5001 998.8207,-182 1008.8207,-185.5001 1008.8207,-178.5001"/>
</g>
<!-- HeaderComponent -->
<g id="node2" class="node">
<title>HeaderComponent</title>
<polygon fill="#ffffb3" stroke="#000000" points="1888.7437,-122 1767.2563,-122 1767.2563,-86 1888.7437,-86 1888.7437,-122"/>
<text text-anchor="middle" x="1828" y="-99.8" font-family="Times,serif" font-size="14.00" fill="#000000">HeaderComponent</text>
</g>
<!-- HeaderComponent&#45;&gt;AppModule -->
<g id="edge2" class="edge">
<title>HeaderComponent&#45;&gt;AppModule</title>
<path fill="none" stroke="#000000" d="M1828,-122.0449C1828,-143.6623 1828,-177 1828,-177 1828,-177 1008.7167,-177 1008.7167,-177"/>
<polygon fill="#000000" stroke="#000000" points="1008.7167,-173.5001 998.7167,-177 1008.7167,-180.5001 1008.7167,-173.5001"/>
</g>
<!-- HomepageComponent -->
<g id="node3" class="node">
<title>HomepageComponent</title>
<polygon fill="#ffffb3" stroke="#000000" points="1748.9734,-122 1607.0266,-122 1607.0266,-86 1748.9734,-86 1748.9734,-122"/>
<text text-anchor="middle" x="1678" y="-99.8" font-family="Times,serif" font-size="14.00" fill="#000000">HomepageComponent</text>
</g>
<!-- HomepageComponent&#45;&gt;AppModule -->
<g id="edge3" class="edge">
<title>HomepageComponent&#45;&gt;AppModule</title>
<path fill="none" stroke="#000000" d="M1678,-122.2228C1678,-142.3652 1678,-172 1678,-172 1678,-172 1008.8804,-172 1008.8804,-172"/>
<polygon fill="#000000" stroke="#000000" points="1008.8805,-168.5001 998.8804,-172 1008.8804,-175.5001 1008.8805,-168.5001"/>
</g>
<!-- CoursesComponent -->
<g id="node4" class="node">
<title>CoursesComponent</title>
<polygon fill="#ffffb3" stroke="#000000" points="1589.4341,-122 1462.5659,-122 1462.5659,-86 1589.4341,-86 1589.4341,-122"/>
<text text-anchor="middle" x="1526" y="-99.8" font-family="Times,serif" font-size="14.00" fill="#000000">CoursesComponent</text>
</g>
<!-- CoursesComponent&#45;&gt;AppModule -->
<g id="edge4" class="edge">
<title>CoursesComponent&#45;&gt;AppModule</title>
<path fill="none" stroke="#000000" d="M1526,-122.2222C1526,-140.8285 1526,-167 1526,-167 1526,-167 1008.8399,-167 1008.8399,-167"/>
<polygon fill="#000000" stroke="#000000" points="1008.84,-163.5001 998.8399,-167 1008.8399,-170.5001 1008.84,-163.5001"/>
</g>
<!-- CourseListComponent -->
<g id="node5" class="node">
<title>CourseListComponent</title>
<polygon fill="#ffffb3" stroke="#000000" points="1444.2674,-122 1301.7326,-122 1301.7326,-86 1444.2674,-86 1444.2674,-122"/>
<text text-anchor="middle" x="1373" y="-99.8" font-family="Times,serif" font-size="14.00" fill="#000000">CourseListComponent</text>
</g>
<!-- CourseListComponent&#45;&gt;AppModule -->
<g id="edge5" class="edge">
<title>CourseListComponent&#45;&gt;AppModule</title>
<path fill="none" stroke="#000000" d="M1373,-122.0336C1373,-139.0597 1373,-162 1373,-162 1373,-162 1008.7924,-162 1008.7924,-162"/>
<polygon fill="#000000" stroke="#000000" points="1008.7924,-158.5001 998.7924,-162 1008.7923,-165.5001 1008.7924,-158.5001"/>
</g>
<!-- CourseItemComponent -->
<g id="node6" class="node">
<title>CourseItemComponent</title>
<polygon fill="#ffffb3" stroke="#000000" points="1283.1456,-122 1136.8544,-122 1136.8544,-86 1283.1456,-86 1283.1456,-122"/>
<text text-anchor="middle" x="1210" y="-99.8" font-family="Times,serif" font-size="14.00" fill="#000000">CourseItemComponent</text>
</g>
<!-- CourseItemComponent&#45;&gt;AppModule -->
<g id="edge6" class="edge">
<title>CourseItemComponent&#45;&gt;AppModule</title>
<path fill="none" stroke="#000000" d="M1210,-122.2396C1210,-137.5706 1210,-157 1210,-157 1210,-157 1008.7778,-157 1008.7778,-157"/>
<polygon fill="#000000" stroke="#000000" points="1008.7778,-153.5001 998.7778,-157 1008.7778,-160.5001 1008.7778,-153.5001"/>
</g>
<!-- CourseDetailComponent -->
<g id="node7" class="node">
<title>CourseDetailComponent</title>
<polygon fill="#ffffb3" stroke="#000000" points="1118.6965,-122 963.3035,-122 963.3035,-86 1118.6965,-86 1118.6965,-122"/>
<text text-anchor="middle" x="1041" y="-99.8" font-family="Times,serif" font-size="14.00" fill="#000000">CourseDetailComponent</text>
</g>
<!-- CourseDetailComponent&#45;&gt;AppModule -->
<g id="edge7" class="edge">
<title>CourseDetailComponent&#45;&gt;AppModule</title>
<path fill="none" stroke="#000000" d="M981.115,-122.1061C981.115,-122.1061 981.115,-140.991 981.115,-140.991"/>
<polygon fill="#000000" stroke="#000000" points="977.6151,-140.9909 981.115,-150.991 984.6151,-140.991 977.6151,-140.9909"/>
</g>
<!-- CourseEditComponent -->
<g id="node8" class="node">
<title>CourseEditComponent</title>
<polygon fill="#ffffb3" stroke="#000000" points="945.323,-122 800.677,-122 800.677,-86 945.323,-86 945.323,-122"/>
<text text-anchor="middle" x="873" y="-99.8" font-family="Times,serif" font-size="14.00" fill="#000000">CourseEditComponent</text>
</g>
<!-- CourseEditComponent&#45;&gt;AppModule -->
<g id="edge8" class="edge">
<title>CourseEditComponent&#45;&gt;AppModule</title>
<path fill="none" stroke="#000000" d="M930.1666,-122.1061C930.1666,-122.1061 930.1666,-140.991 930.1666,-140.991"/>
<polygon fill="#000000" stroke="#000000" points="926.6666,-140.9909 930.1666,-150.991 933.6666,-140.991 926.6666,-140.9909"/>
</g>
<!-- DropdownDirective -->
<g id="node9" class="node">
<title>DropdownDirective</title>
<polygon fill="#ffffb3" stroke="#000000" points="782.9566,-122 655.0434,-122 655.0434,-86 782.9566,-86 782.9566,-122"/>
<text text-anchor="middle" x="719" y="-99.8" font-family="Times,serif" font-size="14.00" fill="#000000">DropdownDirective</text>
</g>
<!-- DropdownDirective&#45;&gt;AppModule -->
<g id="edge9" class="edge">
<title>DropdownDirective&#45;&gt;AppModule</title>
<path fill="none" stroke="#000000" d="M719,-122.2396C719,-137.5706 719,-157 719,-157 719,-157 905.2712,-157 905.2712,-157"/>
<polygon fill="#000000" stroke="#000000" points="905.2713,-160.5001 915.2712,-157 905.2712,-153.5001 905.2713,-160.5001"/>
</g>
<!-- AuthComponent -->
<g id="node10" class="node">
<title>AuthComponent</title>
<polygon fill="#ffffb3" stroke="#000000" points="636.8301,-122 527.1699,-122 527.1699,-86 636.8301,-86 636.8301,-122"/>
<text text-anchor="middle" x="582" y="-99.8" font-family="Times,serif" font-size="14.00" fill="#000000">AuthComponent</text>
</g>
<!-- AuthComponent&#45;&gt;AppModule -->
<g id="edge10" class="edge">
<title>AuthComponent&#45;&gt;AppModule</title>
<path fill="none" stroke="#000000" d="M582,-122.0336C582,-139.0597 582,-162 582,-162 582,-162 905.0743,-162 905.0743,-162"/>
<polygon fill="#000000" stroke="#000000" points="905.0743,-165.5001 915.0743,-162 905.0743,-158.5001 905.0743,-165.5001"/>
</g>
<!-- ErrorComponent -->
<g id="node11" class="node">
<title>ErrorComponent</title>
<polygon fill="#ffffb3" stroke="#000000" points="509.3669,-122 398.6331,-122 398.6331,-86 509.3669,-86 509.3669,-122"/>
<text text-anchor="middle" x="454" y="-99.8" font-family="Times,serif" font-size="14.00" fill="#000000">ErrorComponent</text>
</g>
<!-- ErrorComponent&#45;&gt;AppModule -->
<g id="edge11" class="edge">
<title>ErrorComponent&#45;&gt;AppModule</title>
<path fill="none" stroke="#000000" d="M454,-122.2222C454,-140.8285 454,-167 454,-167 454,-167 904.9797,-167 904.9797,-167"/>
<polygon fill="#000000" stroke="#000000" points="904.9797,-170.5001 914.9797,-167 904.9796,-163.5001 904.9797,-170.5001"/>
</g>
<!-- AppComponent  -->
<g id="node14" class="node">
<title>AppComponent </title>
<polygon fill="#80b1d3" stroke="#000000" points="1011.439,-252 902.561,-252 902.561,-216 1011.439,-216 1011.439,-252"/>
<text text-anchor="middle" x="957" y="-229.8" font-family="Times,serif" font-size="14.00" fill="#000000">AppComponent </text>
</g>
<!-- AppModule&#45;&gt;AppComponent  -->
<g id="edge13" class="edge">
<title>AppModule&#45;&gt;AppComponent </title>
<path fill="none" stroke="#000000" stroke-dasharray="1,5" d="M957,-187.1061C957,-187.1061 957,-205.991 957,-205.991"/>
<polygon fill="#000000" stroke="#000000" points="953.5001,-205.9909 957,-215.991 960.5001,-205.991 953.5001,-205.9909"/>
</g>
<!-- routing -->
<g id="node13" class="node">
<title>routing</title>
<polygon fill="#8dd3c7" stroke="#000000" points="375.4435,-122 372.4435,-126 351.4435,-126 348.4435,-122 318.5565,-122 318.5565,-86 375.4435,-86 375.4435,-122"/>
<text text-anchor="middle" x="347" y="-99.8" font-family="Times,serif" font-size="14.00" fill="#000000">routing</text>
</g>
<!-- routing&#45;&gt;AppModule -->
<g id="edge12" class="edge">
<title>routing&#45;&gt;AppModule</title>
<path fill="none" stroke="#000000" d="M347,-122.2228C347,-142.3652 347,-172 347,-172 347,-172 905.0722,-172 905.0722,-172"/>
<polygon fill="#000000" stroke="#000000" points="905.0723,-175.5001 915.0722,-172 905.0722,-168.5001 905.0723,-175.5001"/>
</g>
<!-- CourseService -->
<g id="node15" class="node">
<title>CourseService</title>
<ellipse fill="#fdb462" stroke="#000000" cx="228" cy="-104" rx="67.1927" ry="18"/>
<text text-anchor="middle" x="228" y="-99.8" font-family="Times,serif" font-size="14.00" fill="#000000">CourseService</text>
</g>
<!-- CourseService&#45;&gt;AppModule -->
<g id="edge14" class="edge">
<title>CourseService&#45;&gt;AppModule</title>
<path fill="none" stroke="#000000" d="M228,-122.0449C228,-143.6623 228,-177 228,-177 228,-177 905.1875,-177 905.1875,-177"/>
<polygon fill="#000000" stroke="#000000" points="905.1875,-180.5001 915.1875,-177 905.1874,-173.5001 905.1875,-180.5001"/>
</g>
<!-- AuthService -->
<g id="node16" class="node">
<title>AuthService</title>
<ellipse fill="#fdb462" stroke="#000000" cx="83" cy="-104" rx="59.1083" ry="18"/>
<text text-anchor="middle" x="83" y="-99.8" font-family="Times,serif" font-size="14.00" fill="#000000">AuthService</text>
</g>
<!-- AuthService&#45;&gt;AppModule -->
<g id="edge15" class="edge">
<title>AuthService&#45;&gt;AppModule</title>
<path fill="none" stroke="#000000" d="M83,-122.0908C83,-145.1328 83,-182 83,-182 83,-182 905.1396,-182 905.1396,-182"/>
<polygon fill="#000000" stroke="#000000" points="905.1396,-185.5001 915.1396,-182 905.1396,-178.5001 905.1396,-185.5001"/>
</g>
</g>
</svg>
